nColumns=28
nRows=71
DataType=double
version=3
OpenSimVersion=4.1
endheader
time	ground_force_1_vx	ground_force_1_vy	ground_force_1_vz	ground_force_1_px	ground_force_1_py	ground_force_1_pz	ground_force_1_mx	ground_force_1_my	ground_force_1_mz	ground_force_2_vx	ground_force_2_vy	ground_force_2_vz	ground_force_2_px	ground_force_2_py	ground_force_2_pz	ground_force_2_mx	ground_force_2_my	ground_force_2_mz	ground_force_3_vx	ground_force_3_vy	ground_force_3_vz	ground_force_3_px	ground_force_3_py	ground_force_3_pz	ground_force_3_mx	ground_force_3_my	ground_force_3_mz
1.16	0	0	0	0.00122576	0	0.000804426	0	0	0	-105.681	144.123	27.2303	-0.185183	0.006	-0.851453	0	-0.152244	0	0	0	0	0.00122576	0	0.000804426	0	0	0
1.17	-16.1453	34.5895	9.88098	-0.179648	0.006	-0.297695	0	0.072882	0	-368.403	515.395	122.834	-0.191349	0.006	-0.852536	0	0.242954	0	0	0	0	0.00122576	0	0.000804426	0	0	0
1.18	-196.757	291.189	3.57704	-0.170252	0.006	-0.2891	0	-0.84492	0	-335.067	499.371	108.639	-0.188534	0.006	-0.85015	0	0.8359	0	0	0	0	0.00122576	0	0.000804426	0	0	0
1.19	-343.994	461.021	-57.7632	-0.166733	0.006	-0.282754	0	-1.97569	0	-130.009	418.506	16.0415	-0.207286	0.006	-0.83905	0	2.61515	0	0	0	0	0.00122576	0	0.000804426	0	0	0
1.2	-212.622	548.166	-61.9319	-0.198837	0.006	-0.281324	0	-3.39741	0	-98.3775	810.916	67.2185	-0.284738	0.006	-0.823076	0	0.785654	0	0	0	0	0.00122576	0	0.000804426	0	0	0
1.21	-66.3852	963.702	-101.771	-0.262389	0.006	-0.282735	0	-4.69013	0	63.1831	1506.06	151.105	-0.330883	0.006	-0.813145	0	-2.6147	0	0	0	0	0.00122576	0	0.000804426	0	0	0
1.22	45.3841	1381.4	-202.406	-0.287919	0.006	-0.280786	0	-3.37623	0	111.531	1417.07	167.935	-0.334158	0.006	-0.813719	0	-2.68693	0	0	0	0	0.00122576	0	0.000804426	0	0	0
1.23	-33.7247	1135.23	-210.336	-0.275327	0.006	-0.277016	0	-0.617921	0	-154.794	847.068	155.272	-0.29158	0.006	-0.825528	0	-3.24952	0	0	0	0	0.00122576	0	0.000804426	0	0	0
1.24	-228.767	759.014	-153.381	-0.231526	0.006	-0.273405	0	0.255753	0	-297.842	581.504	132.66	-0.238231	0.006	-0.83822	0	-1.38622	0	0	0	0	0.00122576	0	0.000804426	0	0	0
1.25	-285.273	587.101	-108.837	-0.198256	0.006	-0.273197	0	-2.51664	0	-283.794	542.728	118.779	-0.228737	0.006	-0.840388	0	0.755307	0	0	0	0	0.00122576	0	0.000804426	0	0	0
1.26	-261.789	549.526	-81.607	-0.192205	0.006	-0.275292	0	-6.06468	0	-218.07	553.057	114.623	-0.236165	0.006	-0.840031	0	1.45864	0	0	0	0	0.00122576	0	0.000804426	0	0	0
1.27	-226.428	570.911	-73.7013	-0.196012	0.006	-0.27615	0	-9.17158	0	-156.593	602.272	120.886	-0.246455	0.006	-0.839567	0	1.19539	0	0	0	0	0.00122576	0	0.000804426	0	0	0
1.28	-197.71	646.085	-83.4194	-0.203123	0.006	-0.275153	0	-11.5238	0	-99.1023	703.496	132.437	-0.259453	0.006	-0.83732	0	0.503226	0	0	0	0	0.00122576	0	0.000804426	0	0	0
1.29	-163.831	763.631	-109.858	-0.212166	0.006	-0.27308	0	-11.9074	0	-41.2902	828.25	142.513	-0.271175	0.006	-0.834055	0	-0.110922	0	0	0	0	0.00122576	0	0.000804426	0	0	0
1.3	-115.439	864.774	-146.352	-0.219254	0.006	-0.270114	0	-10.0164	0	-7.40675	882.204	148.497	-0.273659	0.006	-0.8331	0	-0.714584	0	0	0	0	0.00122576	0	0.000804426	0	0	0
1.31	-83.3677	894.253	-173.106	-0.220677	0.006	-0.266659	0	-7.33133	0	-28.1873	838.468	149.127	-0.265301	0.006	-0.834912	0	-0.925188	0	0	0	0	0.00122576	0	0.000804426	0	0	0
1.32	-88.4722	847.391	-172.443	-0.216116	0.006	-0.263792	0	-6.16664	0	-66.3265	753.385	137.663	-0.252544	0.006	-0.837094	0	-0.124144	0	0	0	0	0.00122576	0	0.000804426	0	0	0
1.33	-112.402	766.919	-152.804	-0.20881	0.006	-0.262268	0	-6.9129	0	-87.4656	682.596	120.537	-0.24271	0.006	-0.837779	0	1.09818	0	0	0	0	0.00122576	0	0.000804426	0	0	0
1.34	-127.291	701.15	-133.794	-0.203453	0.006	-0.261646	0	-8.2619	0	-93.4276	634.741	108.542	-0.236947	0.006	-0.83745	0	1.91262	0	0	0	0	0.00122576	0	0.000804426	0	0	0
1.35	-126.963	671.351	-126.001	-0.201944	0.006	-0.260883	0	-9.1461	0	-93.331	610.828	104.231	-0.233876	0.006	-0.836853	0	2.40924	0	0	0	0	0.00122576	0	0.000804426	0	0	0
1.36	-117.441	680.591	-129.008	-0.203677	0.006	-0.259843	0	-9.51188	0	-89.9144	617.87	103.589	-0.233741	0.006	-0.83579	0	3.21278	0	0	0	0	0.00122576	0	0.000804426	0	0	0
1.37	-102.987	718.336	-137.225	-0.207412	0.006	-0.258882	0	-9.86434	0	-80.0342	650.228	102.434	-0.236705	0.006	-0.833849	0	4.6808	0	0	0	0	0.00122576	0	0.000804426	0	0	0
1.38	-86.1763	765.422	-144.693	-0.211547	0.006	-0.258335	0	-10.5065	0	-64.0086	694.348	99.8333	-0.241298	0.006	-0.831258	0	6.69276	0	0	0	0	0.00122576	0	0.000804426	0	0	0
1.39	-73.9743	805.214	-148.648	-0.214819	0.006	-0.258314	0	-11.3791	0	-46.3572	740.058	94.72	-0.24682	0.006	-0.828169	0	9.14437	0	0	0	0	0.00122576	0	0.000804426	0	0	0
1.4	-69.4756	825.248	-149.551	-0.21678	0.006	-0.258455	0	-12.236	0	-32.0878	770.56	91.1525	-0.251164	0.006	-0.825441	0	10.9815	0	0	0	0	0.00122576	0	0.000804426	0	0	0
1.41	-69.1281	825.196	-149.924	-0.217536	0.006	-0.258467	0	-12.8646	0	-32.0682	775.778	95.9857	-0.252025	0.006	-0.824486	0	11.3315	0	0	0	0	0.00122576	0	0.000804426	0	0	0
1.42	-69.3736	820.362	-152.122	-0.217767	0.006	-0.258345	0	-13.2722	0	-41.1246	768.753	102.65	-0.250879	0.006	-0.824294	0	11.0315	0	0	0	0	0.00122576	0	0.000804426	0	0	0
1.43	-66.8965	825.312	-154.78	-0.218322	0.006	-0.258391	0	-13.7785	0	-45.7945	766.459	103.792	-0.250608	0.006	-0.823396	0	11.2245	0	0	0	0	0.00122576	0	0.000804426	0	0	0
1.44	-60.1517	843.314	-155.146	-0.219506	0.006	-0.259027	0	-14.6857	0	-41.3011	775.164	100.093	-0.252284	0.006	-0.821598	0	12.0199	0	0	0	0	0.00122576	0	0.000804426	0	0	0
1.45	-51.6377	866.744	-152.939	-0.220839	0.006	-0.260258	0	-15.8629	0	-31.7347	790.808	96.8865	-0.254701	0.006	-0.819613	0	12.6916	0	0	0	0	0.00122576	0	0.000804426	0	0	0
1.46	-45.2069	879.735	-149.943	-0.221452	0.006	-0.261553	0	-16.7537	0	-23.378	802.758	97.7989	-0.256462	0.006	-0.81812	0	12.7552	0	0	0	0	0.00122576	0	0.000804426	0	0	0
1.47	-44.3009	871.005	-149.234	-0.220627	0.006	-0.262223	0	-17.0071	0	-19.3282	802.907	101.533	-0.25704	0.006	-0.817105	0	12.3375	0	0	0	0	0.00122576	0	0.000804426	0	0	0
1.48	-48.5941	845.433	-150.998	-0.218453	0.006	-0.262405	0	-16.6979	0	-18.6141	793.779	102.998	-0.257126	0.006	-0.816238	0	12.1169	0	0	0	0	0.00122576	0	0.000804426	0	0	0
1.49	-53.8272	816.657	-151.801	-0.215874	0.006	-0.262624	0	-16.3339	0	-18.7302	781.272	100.13	-0.257534	0.006	-0.81512	0	12.4332	0	0	0	0	0.00122576	0	0.000804426	0	0	0
1.5	-56.6396	793.772	-149.744	-0.213718	0.006	-0.263162	0	-16.2652	0	-18.1114	768.178	95.4998	-0.258349	0.006	-0.813741	0	12.9619	0	0	0	0	0.00122576	0	0.000804426	0	0	0
1.51	-56.1219	777.79	-146.749	-0.212221	0.006	-0.263969	0	-16.3424	0	-16.5292	754.786	92.5967	-0.259203	0.006	-0.812504	0	13.1767	0	0	0	0	0.00122576	0	0.000804426	0	0	0
1.52	-53.3782	764.771	-146.282	-0.211026	0.006	-0.264602	0	-16.2702	0	-14.3731	741.097	92.6709	-0.259471	0.006	-0.811751	0	12.8703	0	0	0	0	0.00122576	0	0.000804426	0	0	0
1.53	-50.474	749.809	-148.663	-0.209765	0.006	-0.264984	0	-15.9389	0	-11.6649	727.515	94.7772	-0.259188	0.006	-0.811505	0	12.1564	0	0	0	0	0.00122576	0	0.000804426	0	0	0
1.54	-48.8187	729.239	-150.989	-0.208379	0.006	-0.265332	0	-15.483	0	-8.9015	713.577	97.6656	-0.258629	0.006	-0.811624	0	11.2844	0	0	0	0	0.00122576	0	0.000804426	0	0	0
1.55	-47.9902	702.646	-150.998	-0.206837	0.006	-0.265738	0	-15.0358	0	-6.37815	697.597	100.199	-0.257884	0.006	-0.811746	0	10.3086	0	0	0	0	0.00122576	0	0.000804426	0	0	0
1.56	-46.9374	673.549	-148.824	-0.205269	0.006	-0.266168	0	-14.6733	0	-4.39103	680.375	102.029	-0.257191	0.006	-0.81185	0	9.26786	0	0	0	0	0.00122576	0	0.000804426	0	0	0
1.57	-44.7969	646.373	-145.501	-0.20403	0.006	-0.266815	0	-14.365	0	-2.70385	662.925	103.445	-0.25653	0.006	-0.812024	0	8.2559	0	0	0	0	0.00122576	0	0.000804426	0	0	0
1.58	-41.7913	624.139	-141.709	-0.20309	0.006	-0.267804	0	-14.0431	0	-1.5112	646.148	104.801	-0.255777	0.006	-0.812356	0	7.2133	0	0	0	0	0.00122576	0	0.000804426	0	0	0
1.59	-39.2533	607.24	-138.556	-0.202406	0.006	-0.268871	0	-13.6964	0	-0.714057	631.129	106.008	-0.255007	0.006	-0.81282	0	6.12877	0	0	0	0	0.00122576	0	0.000804426	0	0	0
1.6	-35.5462	594.264	-136.769	-0.202127	0.006	-0.26985	0	-13.3113	0	0.319615	617.7	107.39	-0.254468	0.006	-0.813295	0	5.03743	0	0	0	0	0.00122576	0	0.000804426	0	0	0
1.61	-30.2473	584.397	-136.569	-0.202198	0.006	-0.270877	0	-12.8716	0	2.12742	606.056	108.752	-0.254469	0.006	-0.813683	0	4.03549	0	0	0	0	0.00122576	0	0.000804426	0	0	0
1.62	-26.1593	576.633	-137.241	-0.202496	0.006	-0.271841	0	-12.4078	0	4.99385	597.435	109.621	-0.254903	0.006	-0.813998	0	3.21061	0	0	0	0	0.00122576	0	0.000804426	0	0	0
1.63	-24.2245	569.218	-137.471	-0.202807	0.006	-0.27284	0	-11.8951	0	8.11202	591.943	110.281	-0.255667	0.006	-0.814345	0	2.47785	0	0	0	0	0.00122576	0	0.000804426	0	0	0
1.64	-23.5869	561.138	-136.444	-0.203075	0.006	-0.274039	0	-11.3374	0	10.8664	588.774	111.014	-0.256621	0.006	-0.814695	0	1.69761	0	0	0	0	0.00122576	0	0.000804426	0	0	0
1.65	-23.6497	554.233	-134.732	-0.203532	0.006	-0.27544	0	-10.7114	0	12.5555	586.839	112.157	-0.257437	0.006	-0.815071	0	0.840925	0	0	0	0	0.00122576	0	0.000804426	0	0	0
1.66	-24.0337	550.194	-133.783	-0.204303	0.006	-0.27686	0	-10.0629	0	12.1073	584.98	113.566	-0.25796	0.006	-0.815812	0	-0.184035	0	0	0	0	0.00122576	0	0.000804426	0	0	0
1.67	-24.9253	550.476	-133.936	-0.205495	0.006	-0.278248	0	-9.4678	0	10.6285	583.24	115.003	-0.258325	0.006	-0.816994	0	-1.23622	0	0	0	0	0.00122576	0	0.000804426	0	0	0
1.68	-25.0686	556.173	-133.902	-0.207482	0.006	-0.279707	0	-9.08655	0	9.44674	583.584	116.856	-0.25869	0.006	-0.818477	0	-2.19983	0	0	0	0	0.00122576	0	0.000804426	0	0	0
1.69	-23.5439	568.902	-133.183	-0.210674	0.006	-0.281556	0	-8.88323	0	10.0566	591.563	119.316	-0.258754	0.006	-0.820388	0	-3.03414	0	0	0	0	0.00122576	0	0.000804426	0	0	0
1.7	-19.9861	590.643	-133.463	-0.214835	0.006	-0.283383	0	-8.70056	0	13.0111	609.926	123.98	-0.257926	0.006	-0.823078	0	-3.69987	0	0	0	0	0.00122576	0	0.000804426	0	0	0
1.71	-14.8131	619.314	-137.083	-0.218296	0.006	-0.2843	0	-8.24087	0	17.6675	635.259	131.428	-0.255795	0.006	-0.826923	0	-4.14179	0	0	0	0	0.00122576	0	0.000804426	0	0	0
1.72	-12.8528	650.886	-142.844	-0.219073	0.006	-0.283854	0	-7.36137	0	23.2713	663.777	140.06	-0.252226	0.006	-0.831978	0	-4.19883	0	0	0	0	0.00122576	0	0.000804426	0	0	0
1.73	-14.1501	678.865	-146.415	-0.216191	0.006	-0.28201	0	-6.29658	0	26.0193	692.543	147.244	-0.247511	0.006	-0.837308	0	-3.77755	0	0	0	0	0.00122576	0	0.000804426	0	0	0
1.74	-21.5861	699.596	-148.063	-0.209732	0.006	-0.278692	0	-5.12589	0	24.5716	714.186	151.854	-0.242117	0.006	-0.842309	0	-3.12219	0	0	0	0	0.00122576	0	0.000804426	0	0	0
1.75	-36.594	713.242	-151.886	-0.201491	0.006	-0.274377	0	-3.74301	0	19.0535	718.435	153.372	-0.235636	0.006	-0.847306	0	-2.44373	0	0	0	0	0.00122576	0	0.000804426	0	0	0
1.76	-50.6235	716.655	-156.001	-0.19334	0.006	-0.269836	0	-2.23502	0	7.61096	708.459	151.355	-0.227971	0.006	-0.852378	0	-1.61271	0	0	0	0	0.00122576	0	0.000804426	0	0	0
1.77	-60.9441	711.827	-153.653	-0.186253	0.006	-0.26578	0	-1.0931	0	-10.1513	696.346	145.791	-0.220053	0.006	-0.857077	0	-0.579628	0	0	0	0	0.00122576	0	0.000804426	0	0	0
1.78	-72.1877	705.058	-143.851	-0.180625	0.006	-0.262554	0	-0.594771	0	-26.6234	688.307	137.098	-0.213785	0.006	-0.860723	0	0.465765	0	0	0	0	0.00122576	0	0.000804426	0	0	0
1.79	-83.3915	691.191	-130.104	-0.176289	0.006	-0.259776	0	-0.478358	0	-35.3783	680.297	127.332	-0.209994	0.006	-0.863318	0	1.17709	0	0	0	0	0.00122576	0	0.000804426	0	0	0
1.8	-88.1682	657.022	-114.146	-0.1728	0.006	-0.25685	0	-0.561403	0	-38.6407	662.525	117.146	-0.207368	0.006	-0.865627	0	1.47898	0	0	0	0	0.00122576	0	0.000804426	0	0	0
1.81	-82.2727	586.357	-94.4607	-0.169543	0.006	-0.253414	0	-0.713348	0	-41.3955	626.768	106.264	-0.204437	0.006	-0.868195	0	1.55615	0	0	0	0	0.00122576	0	0.000804426	0	0	0
1.82	-62.2483	459.875	-65.2456	-0.165273	0.006	-0.249223	0	-0.855249	0	-41.2724	565.145	92.4851	-0.200803	0.006	-0.871357	0	1.65765	0	0	0	0	0.00122576	0	0.000804426	0	0	0
1.83	-27.8276	278.612	-28.0423	-0.157582	0.006	-0.24379	0	-0.78728	0	-33.6918	471.663	73.6809	-0.196159	0.006	-0.875433	0	1.84145	0	0	0	0	0.00122576	0	0.000804426	0	0	0
1.84	4.20259	105.86	0.652378	-0.143703	0.006	-0.236767	0	-0.400868	0	-20.0094	352.334	51.5078	-0.189703	0.006	-0.880167	0	1.95567	0	0	0	0	0.00122576	0	0.000804426	0	0	0
1.85	0	0	0	0.00122576	0	0.000804426	0	0	0	3.09733	218.479	25.411	-0.182447	0.006	-0.88347	0	1.68908	0	0	0	0	0.00122576	0	0.000804426	0	0	0
1.86	0	0	0	0.00122576	0	0.000804426	0	0	0	26.2906	85.1039	1.94042	-0.173345	0.006	-0.883586	0	1.08158	0	0	0	0	0.00122576	0	0.000804426	0	0	0
